<?xml version="1.0" standalone="no"?>
<!DOCTYPE svg PUBLIC "-//W3C//DTD SVG 20010904//EN"
 "http://www.w3.org/TR/2001/REC-SVG-20010904/DTD/svg10.dtd">
<svg version="1.0" xmlns="http://www.w3.org/2000/svg"
 width="4000.000000pt" height="664.000000pt" viewBox="0 0 4000.000000 664.000000"
 preserveAspectRatio="xMidYMid meet">
<metadata>
Created by potrace 1.16, written by Peter Selinger 2001-2019
</metadata>
<g transform="translate(0.000000,664.000000) scale(0.100000,-0.100000)"
fill="#000000" stroke="none">
<path d="M14655 6080 c-38 -3 -149 -12 -245 -20 -149 -11 -186 -17 -246 -41
-40 -15 -110 -34 -157 -42 -51 -9 -102 -25 -129 -41 -24 -14 -68 -30 -98 -37
-30 -6 -75 -26 -101 -44 -26 -18 -63 -35 -82 -39 -19 -3 -43 -16 -53 -28 -11
-11 -41 -31 -68 -44 -91 -42 -163 -101 -316 -256 -110 -111 -180 -194 -180
-213 0 -8 -15 -33 -33 -57 -19 -24 -39 -59 -45 -78 -7 -18 -25 -54 -41 -79
-17 -27 -34 -72 -41 -108 -6 -34 -22 -88 -37 -120 -30 -69 -42 -186 -42 -423
0 -230 12 -357 38 -408 12 -24 30 -77 41 -118 10 -41 29 -89 43 -107 13 -18
29 -49 36 -69 7 -21 28 -56 47 -79 19 -22 34 -45 34 -50 0 -14 250 -259 292
-285 21 -13 38 -29 38 -35 0 -5 28 -23 63 -38 34 -16 70 -38 81 -49 10 -12 35
-26 55 -33 20 -6 51 -23 69 -36 19 -14 59 -32 90 -40 32 -8 74 -25 94 -39 21
-13 71 -31 110 -39 40 -9 95 -27 122 -41 27 -14 86 -31 135 -39 48 -8 113 -26
145 -41 38 -17 93 -30 164 -39 61 -8 137 -25 177 -40 51 -20 107 -30 211 -40
106 -10 157 -20 205 -40 35 -14 107 -32 160 -39 73 -10 106 -20 137 -41 23
-15 72 -34 108 -41 69 -15 82 -23 199 -128 60 -53 69 -75 80 -186 8 -76 -10
-236 -29 -265 -30 -45 -177 -183 -203 -190 -15 -3 -52 -22 -83 -40 -43 -26
-71 -35 -125 -40 -38 -4 -110 -16 -160 -28 -127 -29 -353 -29 -480 0 -49 12
-122 24 -162 28 -55 5 -83 14 -119 36 -25 17 -67 38 -93 48 -91 35 -254 174
-281 241 -7 19 -26 50 -41 67 -28 32 -49 88 -49 129 0 12 -11 51 -25 87 -13
36 -27 89 -31 118 -9 73 -29 119 -51 119 -275 5 -1100 -3 -1115 -11 -11 -6
-25 -24 -32 -41 -14 -33 -13 -52 9 -253 8 -71 19 -176 24 -233 7 -75 16 -117
35 -157 15 -30 33 -88 40 -129 9 -43 25 -91 40 -113 14 -21 33 -62 41 -90 9
-29 26 -65 39 -80 13 -16 31 -44 40 -63 37 -79 130 -199 225 -292 35 -35 78
-77 95 -94 17 -17 45 -38 62 -47 17 -9 37 -23 44 -32 8 -9 34 -27 59 -40 25
-12 54 -32 65 -44 10 -11 44 -30 74 -41 30 -12 68 -32 83 -45 16 -13 51 -28
79 -34 27 -6 68 -23 90 -37 26 -17 68 -32 115 -40 40 -7 104 -26 142 -42 51
-22 91 -32 158 -37 50 -3 160 -20 245 -38 152 -30 160 -31 440 -31 276 0 288
1 390 27 58 14 159 33 225 40 91 11 138 22 190 45 39 17 93 33 120 37 28 4 73
20 100 35 28 15 75 35 106 44 30 8 64 24 73 35 10 11 41 28 70 37 28 9 62 27
76 40 14 12 46 32 71 43 25 11 54 30 65 42 10 11 32 28 47 36 30 15 54 37 192
173 148 147 221 236 256 310 11 25 29 55 40 66 11 12 28 48 38 80 10 33 29 76
43 96 19 28 28 57 33 110 4 40 20 111 36 158 22 67 29 112 34 215 9 158 -6
333 -34 403 -11 29 -27 95 -35 148 -10 71 -20 102 -36 119 -12 12 -30 53 -41
89 -11 37 -27 70 -35 73 -8 3 -25 24 -39 47 -31 52 -134 167 -205 229 -93 81
-151 127 -160 127 -5 0 -25 14 -44 30 -18 17 -53 37 -77 45 -24 9 -60 27 -80
41 -21 14 -64 32 -98 40 -34 7 -85 26 -113 40 -30 15 -90 32 -141 41 -49 7
-112 25 -138 39 -34 17 -85 29 -159 39 -68 9 -133 24 -172 41 -45 19 -97 30
-183 39 -84 9 -140 21 -185 39 -38 16 -109 32 -172 41 -74 10 -122 22 -159 40
-29 15 -90 33 -137 41 -57 9 -98 22 -123 39 -21 13 -68 32 -104 41 -44 11 -80
28 -107 50 -22 19 -44 34 -49 34 -5 0 -31 22 -59 50 -40 40 -56 67 -80 132
-38 104 -38 150 2 263 27 78 39 98 92 153 39 40 76 68 106 79 25 9 63 30 86
45 43 30 59 34 294 63 156 19 212 19 375 0 253 -30 265 -33 304 -59 20 -14 57
-33 82 -41 64 -22 218 -170 254 -245 14 -30 35 -71 45 -90 13 -24 22 -74 30
-159 6 -68 17 -132 23 -142 30 -48 38 -49 625 -49 470 0 551 2 562 15 19 22
22 115 12 301 -8 151 -12 178 -35 228 -14 31 -31 84 -38 119 -6 34 -24 83 -40
108 -16 25 -34 61 -40 80 -7 19 -22 48 -34 64 -12 17 -30 46 -40 65 -10 19
-33 52 -51 73 -19 20 -34 43 -34 50 0 41 -297 359 -385 413 -16 9 -41 28 -55
40 -14 13 -42 30 -62 38 -21 9 -52 29 -70 45 -18 15 -51 34 -73 41 -21 7 -56
25 -77 41 -22 15 -58 30 -81 34 -23 4 -63 20 -89 37 -33 21 -71 33 -132 43
-47 8 -109 26 -140 40 -61 29 -54 28 -395 55 -245 20 -357 22 -486 10z"/>
<path d="M3546 5968 c-9 -12 -16 -26 -16 -31 0 -5 -12 -24 -26 -42 -14 -19
-32 -57 -39 -85 -7 -28 -26 -67 -40 -86 -15 -20 -33 -58 -40 -86 -8 -28 -25
-67 -39 -87 -14 -20 -34 -62 -44 -94 -11 -31 -31 -74 -45 -95 -14 -20 -31 -57
-37 -82 -6 -25 -24 -63 -39 -85 -16 -22 -34 -63 -40 -92 -7 -29 -20 -58 -28
-65 -20 -16 -52 -86 -53 -114 0 -12 -14 -40 -31 -64 -18 -24 -37 -65 -44 -91
-7 -26 -27 -67 -43 -91 -17 -24 -34 -60 -38 -81 -3 -20 -19 -56 -35 -80 -16
-23 -36 -67 -45 -97 -9 -30 -28 -70 -41 -88 -14 -19 -33 -60 -43 -92 -10 -32
-29 -73 -42 -92 -14 -18 -30 -55 -37 -81 -6 -26 -25 -66 -41 -89 -17 -23 -33
-59 -36 -80 -4 -21 -22 -59 -40 -86 -19 -26 -34 -51 -34 -57 0 -29 -24 -88
-44 -113 -14 -15 -31 -53 -40 -83 -9 -31 -28 -71 -42 -90 -14 -19 -32 -59 -41
-89 -9 -30 -28 -73 -44 -95 -15 -22 -33 -60 -38 -84 -5 -24 -23 -62 -39 -85
-16 -22 -34 -63 -41 -91 -7 -27 -26 -67 -42 -89 -16 -22 -29 -45 -29 -50 0
-30 -24 -89 -46 -116 -14 -16 -32 -53 -39 -81 -8 -28 -26 -68 -40 -89 -15 -21
-33 -59 -41 -86 -8 -26 -27 -68 -43 -93 -16 -25 -35 -66 -41 -91 -7 -24 -25
-63 -41 -85 -15 -22 -33 -60 -38 -84 -5 -24 -23 -62 -39 -85 -16 -22 -34 -63
-41 -91 -7 -27 -26 -67 -42 -89 -16 -22 -29 -45 -29 -50 0 -30 -24 -89 -46
-116 -14 -16 -32 -53 -39 -81 -8 -28 -26 -68 -40 -89 -15 -21 -33 -59 -41 -86
-8 -26 -27 -68 -43 -93 -16 -25 -35 -67 -42 -94 -6 -26 -24 -63 -39 -83 -16
-19 -33 -58 -39 -86 -6 -28 -24 -67 -40 -87 -15 -20 -33 -58 -40 -85 -7 -27
-25 -68 -41 -90 -15 -23 -31 -57 -35 -76 -4 -19 -14 -47 -23 -62 -13 -22 -14
-30 -4 -40 19 -19 4895 -19 4913 -1 10 10 6 21 -14 51 -15 21 -34 61 -42 89
-8 27 -25 62 -36 77 -12 15 -30 54 -40 87 -10 33 -30 74 -43 92 -13 18 -32 58
-41 90 -9 31 -27 70 -40 85 -13 15 -30 53 -38 85 -8 31 -27 70 -41 87 -23 28
-46 86 -46 117 0 6 -12 25 -26 42 -14 17 -34 57 -43 89 -10 31 -30 74 -44 95
-14 21 -33 62 -41 91 -9 29 -25 65 -37 80 -12 15 -30 54 -40 87 -10 33 -30 74
-43 92 -13 18 -32 58 -41 90 -9 31 -27 70 -40 85 -13 15 -30 53 -38 85 -8 31
-27 70 -41 87 -22 27 -46 86 -46 116 0 6 -13 28 -29 47 -16 20 -34 58 -40 84
-7 27 -26 69 -42 94 -16 25 -36 69 -44 96 -8 28 -25 62 -36 77 -12 15 -30 54
-40 87 -10 33 -30 74 -43 92 -13 18 -32 58 -41 90 -9 31 -27 70 -40 85 -13 15
-30 53 -38 85 -8 31 -27 70 -41 87 -22 27 -46 86 -46 116 0 6 -13 28 -29 47
-16 20 -34 58 -40 84 -7 27 -26 69 -42 94 -16 25 -36 69 -44 96 -8 28 -25 62
-36 77 -12 15 -30 54 -40 87 -10 33 -30 74 -43 92 -13 18 -32 58 -41 90 -9 31
-27 70 -40 85 -13 15 -30 53 -38 85 -8 31 -27 70 -41 87 -22 27 -46 86 -46
116 0 6 -13 28 -29 47 -16 20 -34 58 -40 84 -7 27 -26 69 -42 94 -16 25 -36
69 -44 96 -8 28 -25 62 -36 77 -12 15 -30 55 -41 89 -10 33 -29 75 -43 92 -13
18 -31 57 -40 88 -9 32 -27 70 -40 85 -13 15 -30 53 -38 85 -8 31 -27 70 -41
87 -23 28 -46 86 -46 117 0 6 -12 25 -26 42 -14 17 -34 58 -44 90 -16 53 -67
142 -89 156 -5 3 -17 -5 -25 -17z m53 -619 c11 -12 22 -32 26 -46 3 -13 21
-47 39 -74 19 -27 37 -67 41 -88 4 -22 20 -57 36 -77 16 -21 32 -49 35 -63 13
-59 26 -90 45 -107 11 -9 27 -43 35 -73 9 -31 31 -81 49 -111 19 -30 37 -71
40 -90 4 -19 20 -53 35 -75 15 -22 35 -64 43 -92 8 -28 27 -69 42 -91 14 -22
33 -62 41 -88 8 -27 26 -65 40 -85 14 -20 31 -60 39 -88 7 -28 25 -65 39 -82
14 -17 29 -43 32 -57 12 -54 24 -83 48 -114 13 -18 30 -55 37 -83 6 -27 23
-65 37 -84 14 -18 33 -59 43 -91 9 -31 29 -74 43 -94 14 -20 32 -61 40 -89 9
-29 29 -71 45 -95 16 -23 32 -60 36 -82 4 -22 20 -56 36 -76 16 -20 34 -55 39
-78 13 -49 23 -71 54 -113 13 -18 26 -49 29 -71 4 -21 20 -57 37 -80 16 -23
35 -63 41 -89 7 -26 25 -66 40 -88 15 -22 33 -60 39 -85 7 -25 25 -66 41 -91
16 -25 35 -67 43 -93 8 -27 26 -65 41 -86 14 -21 32 -61 40 -89 7 -28 25 -65
39 -81 22 -27 46 -86 46 -116 0 -5 13 -28 29 -50 16 -22 35 -62 42 -89 7 -28
25 -69 41 -91 16 -23 34 -61 39 -85 5 -24 23 -62 38 -84 16 -22 35 -65 44 -95
9 -30 27 -70 41 -89 14 -19 33 -59 42 -90 9 -30 27 -68 40 -84 13 -15 28 -47
34 -70 13 -52 24 -75 52 -110 30 -37 30 -93 0 -118 -13 -10 -46 -20 -75 -24
-28 -3 -928 -5 -1999 -3 l-1946 3 -26 24 c-33 31 -33 67 -1 111 14 19 28 52
32 73 3 21 16 52 29 70 31 42 41 64 54 114 6 23 22 56 36 73 14 16 33 56 41
87 8 31 26 71 39 89 14 18 32 56 39 84 7 28 25 66 38 84 14 18 32 56 41 86 9
29 29 74 45 99 16 25 35 66 41 91 7 25 23 60 36 78 25 31 36 60 48 114 3 14
18 40 32 57 14 17 33 57 41 88 8 32 25 70 38 85 21 25 45 84 45 113 0 6 15 32
34 58 19 26 37 64 41 85 3 20 20 58 37 84 16 26 36 69 44 94 8 26 27 68 43 93
16 25 35 67 42 94 6 26 24 63 39 83 16 19 33 57 39 85 6 28 24 67 40 87 16 20
34 59 40 86 7 27 23 63 37 82 14 18 31 55 39 83 7 27 27 69 43 93 17 24 34 60
38 81 3 20 19 56 35 80 16 23 36 67 45 97 9 30 28 70 41 88 14 19 33 60 43 92
10 32 29 73 42 92 14 18 31 55 37 82 7 27 23 63 37 82 14 18 32 56 39 84 7 28
26 67 40 86 15 20 33 58 40 86 8 28 26 67 40 88 15 21 33 59 41 86 8 26 27 68
43 93 16 25 35 66 41 91 7 24 25 63 41 85 15 22 33 60 38 84 5 24 23 63 40 86
17 24 31 47 31 52 0 4 5 25 10 45 19 67 61 87 99 47z"/>
<path d="M31817 5967 c-10 -6 -24 -36 -32 -66 -7 -29 -25 -70 -39 -90 -14 -20
-33 -61 -42 -91 -9 -30 -27 -68 -40 -86 -13 -17 -31 -55 -40 -85 -9 -29 -29
-72 -44 -94 -15 -22 -31 -56 -35 -75 -3 -19 -21 -60 -40 -90 -18 -30 -40 -80
-49 -111 -8 -30 -24 -64 -35 -73 -19 -18 -32 -48 -45 -108 -3 -14 -18 -40 -32
-57 -14 -17 -32 -54 -39 -82 -8 -28 -25 -68 -39 -88 -14 -20 -33 -61 -42 -91
-9 -30 -27 -68 -40 -86 -13 -17 -31 -55 -40 -84 -9 -29 -27 -70 -41 -90 -13
-21 -31 -59 -39 -86 -8 -26 -27 -68 -43 -93 -16 -25 -35 -67 -42 -94 -6 -26
-24 -64 -40 -84 -16 -19 -29 -41 -29 -47 0 -30 -24 -89 -46 -116 -14 -16 -32
-53 -39 -81 -8 -28 -25 -68 -39 -88 -14 -20 -33 -61 -42 -91 -9 -30 -27 -68
-40 -85 -13 -17 -32 -59 -42 -92 -11 -34 -29 -74 -41 -89 -11 -15 -28 -49 -36
-77 -8 -27 -28 -71 -44 -96 -16 -25 -35 -67 -42 -94 -6 -26 -24 -64 -40 -84
-16 -19 -29 -41 -29 -47 0 -30 -24 -89 -46 -116 -14 -17 -33 -56 -41 -87 -8
-32 -25 -70 -38 -85 -13 -15 -31 -54 -40 -85 -9 -32 -28 -72 -41 -90 -13 -18
-33 -59 -43 -92 -10 -33 -28 -72 -40 -87 -12 -15 -28 -51 -37 -80 -8 -29 -28
-72 -44 -96 -16 -24 -33 -59 -36 -78 -8 -42 -20 -68 -46 -96 -11 -12 -26 -48
-34 -80 -9 -33 -27 -71 -40 -85 -14 -15 -32 -53 -40 -85 -9 -32 -26 -71 -39
-86 -13 -15 -31 -54 -40 -85 -9 -31 -30 -75 -45 -98 -16 -22 -32 -57 -36 -78
-3 -20 -19 -56 -35 -80 -16 -23 -36 -67 -45 -97 -9 -30 -27 -70 -41 -88 -24
-31 -35 -60 -47 -114 -3 -14 -18 -40 -32 -57 -14 -17 -33 -57 -41 -88 -8 -31
-28 -73 -44 -92 -34 -41 -38 -85 -10 -101 27 -14 4829 -14 4867 0 24 10 26 14
21 52 -3 22 -19 59 -35 82 -17 23 -35 62 -42 86 -6 25 -25 66 -41 91 -16 25
-35 67 -43 93 -8 27 -26 65 -41 86 -14 21 -32 61 -40 89 -7 28 -25 65 -39 81
-22 27 -46 86 -46 116 0 5 -13 28 -29 50 -16 22 -35 62 -42 89 -7 28 -25 69
-41 91 -16 23 -34 61 -39 85 -5 24 -23 62 -38 84 -16 22 -34 61 -41 85 -6 25
-25 66 -41 91 -16 25 -35 67 -43 93 -8 27 -26 65 -41 86 -14 21 -32 60 -40 88
-7 28 -25 66 -40 86 -14 19 -32 57 -40 85 -7 27 -24 64 -38 83 -14 18 -31 56
-38 83 -6 28 -23 65 -37 83 -13 19 -32 60 -42 92 -10 32 -29 73 -43 92 -14 18
-30 53 -37 78 -6 25 -25 66 -41 91 -16 25 -35 67 -43 93 -8 27 -26 65 -41 86
-14 21 -32 60 -40 88 -7 28 -25 66 -40 86 -14 19 -32 57 -40 85 -7 27 -24 64
-38 83 -14 18 -31 56 -38 83 -6 28 -23 65 -37 83 -13 19 -32 60 -42 92 -10 32
-29 73 -43 92 -13 18 -32 58 -40 88 -9 30 -27 70 -41 89 -14 19 -32 57 -41 85
-8 28 -28 70 -44 93 -16 24 -32 60 -36 80 -3 21 -21 61 -40 88 -18 28 -36 66
-39 86 -4 20 -20 55 -36 77 -16 23 -35 63 -41 89 -7 26 -23 63 -37 81 -13 19
-32 60 -42 92 -10 32 -29 73 -43 92 -13 18 -32 58 -40 88 -9 30 -27 70 -41 89
-14 19 -32 57 -41 85 -8 28 -28 70 -44 93 -16 24 -32 60 -36 80 -3 21 -21 61
-40 88 -18 28 -36 66 -39 86 -4 20 -20 55 -36 77 -16 23 -35 63 -41 89 -7 26
-23 63 -36 81 -13 17 -29 47 -34 65 -25 76 -31 87 -53 87 -12 0 -30 -6 -39
-13z m99 -661 c8 -14 21 -47 28 -74 7 -26 27 -68 45 -92 17 -24 31 -52 31 -64
1 -28 33 -98 53 -114 8 -7 21 -36 28 -65 6 -29 24 -70 40 -92 15 -22 33 -60
39 -85 6 -25 23 -62 37 -82 14 -21 34 -64 45 -95 10 -32 30 -74 44 -94 14 -20
31 -59 39 -87 7 -28 25 -66 40 -86 14 -19 33 -58 40 -86 7 -28 25 -66 39 -84
14 -19 30 -55 37 -82 6 -27 24 -66 40 -86 16 -20 34 -59 40 -87 6 -28 23 -66
39 -85 15 -20 33 -57 39 -83 7 -27 26 -69 42 -94 16 -25 35 -67 43 -93 8 -25
28 -68 44 -94 17 -26 34 -64 37 -84 4 -21 22 -59 41 -85 19 -26 34 -52 34 -58
0 -29 24 -88 45 -113 13 -15 30 -53 38 -85 8 -31 27 -71 41 -88 14 -17 29 -43
32 -57 12 -54 23 -83 47 -114 14 -18 32 -58 40 -88 9 -30 27 -70 41 -89 14
-19 33 -59 42 -89 8 -31 26 -69 39 -86 13 -17 31 -57 40 -89 9 -31 27 -70 40
-85 13 -15 30 -54 39 -86 8 -32 26 -70 40 -85 13 -14 31 -52 40 -85 8 -32 23
-68 34 -80 26 -28 38 -54 46 -96 3 -19 20 -54 36 -78 16 -24 36 -67 44 -96 9
-29 25 -65 37 -80 12 -15 30 -55 41 -89 10 -33 29 -75 43 -92 13 -18 31 -56
39 -86 9 -30 29 -73 45 -96 15 -23 34 -69 41 -102 11 -53 11 -64 -4 -85 -9
-14 -33 -30 -53 -35 -58 -16 -3896 -14 -3943 2 -69 24 -76 106 -16 195 18 26
38 69 45 97 7 27 26 67 42 89 16 22 29 45 29 50 0 30 24 89 46 116 14 16 32
53 39 81 8 28 26 68 40 89 15 21 33 59 41 86 8 26 27 68 43 93 16 25 34 66 41
91 6 25 24 63 39 85 15 22 33 62 40 89 7 27 25 68 41 90 16 23 34 61 39 85 5
25 19 56 30 70 27 33 38 56 51 108 6 23 21 55 34 70 13 16 31 54 40 84 9 31
28 71 41 89 13 18 32 58 41 89 9 31 27 70 40 88 13 18 33 59 43 91 10 33 29
75 43 93 14 19 31 57 37 84 7 28 24 65 37 83 24 31 36 60 48 114 3 14 18 40
32 57 14 17 32 54 39 82 8 28 25 68 39 88 14 20 33 61 42 91 9 30 27 68 40 86
13 17 31 55 40 85 9 29 29 72 44 94 15 22 31 56 35 75 3 19 22 60 40 90 19 31
39 77 46 103 6 26 24 64 40 84 16 19 29 41 29 47 0 30 24 89 46 116 14 17 33
56 41 87 8 32 25 70 38 85 13 15 31 54 40 85 9 32 28 72 41 90 13 18 33 59 43
92 10 33 28 72 40 87 12 15 28 51 37 80 8 29 28 72 44 96 16 24 33 59 36 78
11 56 32 88 72 109 52 28 88 27 108 -3z"/>
<path d="M18442 5953 c-7 -3 -17 -16 -23 -30 -5 -15 -9 -1043 -9 -2626 0
-2133 2 -2603 13 -2614 11 -11 392 -13 2107 -13 1936 0 2095 1 2112 17 17 16
18 107 18 2605 0 2290 -2 2592 -15 2618 -21 41 -43 50 -127 50 -71 0 -74 -1
-120 -41 -33 -28 -51 -52 -58 -79 -6 -22 -22 -52 -35 -69 -14 -16 -32 -46 -41
-68 -9 -21 -27 -53 -41 -71 -13 -17 -29 -47 -35 -65 -6 -17 -24 -49 -40 -69
-16 -21 -35 -56 -43 -79 -8 -23 -28 -56 -45 -75 -16 -19 -34 -52 -40 -74 -6
-22 -23 -55 -39 -73 -15 -17 -33 -47 -39 -66 -7 -19 -23 -49 -37 -67 -14 -18
-35 -55 -46 -81 -11 -26 -29 -57 -39 -68 -11 -11 -26 -41 -35 -65 -9 -25 -27
-56 -40 -70 -13 -14 -33 -50 -44 -81 -12 -31 -32 -66 -46 -79 -14 -13 -30 -41
-35 -61 -6 -21 -22 -51 -35 -68 -14 -16 -32 -46 -41 -68 -9 -21 -26 -51 -38
-68 -13 -16 -33 -52 -45 -80 -12 -27 -31 -59 -41 -70 -11 -11 -26 -40 -35 -64
-8 -24 -28 -58 -45 -77 -16 -19 -34 -52 -40 -74 -6 -22 -23 -55 -39 -73 -15
-17 -33 -46 -39 -63 -5 -18 -26 -55 -46 -84 -20 -29 -36 -58 -36 -64 0 -7 -14
-30 -30 -53 -17 -22 -37 -60 -45 -83 -8 -23 -28 -57 -45 -76 -16 -19 -34 -51
-39 -72 -6 -21 -22 -49 -36 -62 -13 -13 -32 -44 -42 -69 -9 -25 -32 -68 -50
-95 -18 -26 -33 -54 -33 -60 0 -7 -12 -28 -26 -47 -14 -19 -38 -61 -54 -94
-15 -33 -34 -66 -43 -73 -9 -8 -23 -35 -32 -62 -16 -48 -97 -138 -127 -141
-44 -4 -63 14 -79 73 -5 21 -23 53 -39 72 -17 19 -37 52 -45 75 -8 23 -27 58
-43 79 -16 20 -34 52 -40 69 -6 18 -22 48 -35 65 -14 18 -32 50 -41 71 -9 22
-27 52 -40 68 -13 16 -30 45 -37 66 -6 21 -24 52 -39 70 -15 17 -35 53 -44 81
-9 27 -28 59 -41 72 -13 13 -31 44 -40 71 -9 26 -23 53 -32 60 -8 7 -28 40
-44 73 -16 33 -35 66 -43 75 -8 9 -24 39 -36 66 -12 28 -32 61 -44 75 -13 14
-29 43 -36 65 -7 22 -25 54 -40 72 -16 17 -33 49 -40 70 -7 21 -24 54 -39 73
-14 19 -38 57 -52 85 -15 27 -40 75 -55 105 -16 31 -41 71 -55 90 -14 19 -33
56 -43 81 -9 25 -28 56 -41 69 -14 13 -30 41 -35 61 -6 21 -22 51 -35 68 -14
16 -35 51 -47 78 -11 26 -31 62 -44 78 -12 17 -29 47 -38 68 -9 22 -27 52 -41
68 -13 17 -29 47 -35 68 -5 20 -21 48 -35 61 -14 13 -34 48 -46 79 -11 31 -31
67 -44 81 -13 14 -31 45 -40 70 -9 24 -24 54 -35 65 -10 11 -28 43 -40 70 -12
28 -30 59 -40 70 -10 11 -28 42 -40 69 -11 27 -33 63 -48 81 -15 18 -35 46
-44 64 -9 17 -29 36 -43 41 -27 10 -180 13 -203 3z m307 -655 c31 -34 64 -82
73 -106 10 -25 28 -57 41 -71 14 -14 30 -44 37 -66 7 -22 25 -54 41 -70 15
-17 35 -50 44 -74 8 -24 28 -62 45 -84 16 -23 30 -46 30 -53 0 -6 16 -35 36
-64 20 -29 41 -66 46 -84 6 -17 23 -45 38 -63 15 -17 35 -54 45 -82 9 -28 25
-56 35 -61 10 -5 28 -36 40 -67 12 -32 32 -69 45 -83 14 -14 30 -41 36 -60 7
-19 27 -57 46 -84 18 -26 33 -54 33 -61 0 -7 15 -32 33 -56 18 -24 41 -65 50
-90 10 -25 29 -56 42 -69 14 -13 30 -41 35 -61 6 -21 22 -51 35 -68 14 -16 35
-51 47 -78 11 -26 31 -61 44 -78 12 -16 29 -47 38 -68 9 -22 27 -52 40 -68 13
-16 30 -45 37 -66 6 -21 24 -52 39 -70 15 -17 35 -53 44 -81 9 -27 28 -59 41
-72 13 -13 30 -39 36 -59 6 -20 24 -53 41 -74 16 -20 34 -52 40 -70 6 -17 23
-48 38 -67 15 -19 35 -56 44 -81 9 -25 28 -56 41 -69 14 -13 30 -41 36 -62 5
-21 23 -53 39 -72 17 -19 37 -53 45 -77 18 -51 28 -64 79 -101 32 -23 49 -28
95 -28 94 0 181 36 181 75 0 6 15 32 34 56 18 24 39 61 46 82 7 21 24 53 40
70 15 18 33 49 40 70 6 21 24 53 39 70 16 18 33 46 39 63 5 18 26 55 46 84 20
29 36 58 36 64 0 7 13 30 29 52 16 21 37 60 47 84 9 25 29 59 44 75 15 17 33
48 40 70 7 22 23 51 36 65 12 14 32 47 43 74 12 26 30 60 41 74 11 14 30 46
41 71 11 25 29 55 39 66 11 11 26 40 35 64 8 24 28 58 45 77 16 19 34 51 39
71 6 21 24 52 40 70 16 18 35 49 41 70 7 21 24 54 39 73 15 19 33 50 39 67 6
18 24 50 40 70 17 21 35 54 41 74 6 20 23 46 36 59 13 13 32 45 41 72 9 28 29
64 44 81 15 18 33 49 39 70 7 21 24 50 37 66 13 16 31 46 40 67 9 21 26 52 39
68 13 17 33 54 45 81 12 28 32 61 45 75 13 14 28 43 34 64 6 22 23 53 39 70
17 17 35 48 42 69 6 21 24 52 38 69 15 17 36 49 47 71 34 69 72 75 102 16 16
-30 19 -4262 3 -4303 -5 -14 -21 -33 -37 -43 -26 -17 -111 -18 -1802 -21
-1241 -2 -1791 1 -1827 8 -32 7 -62 21 -78 37 l-26 26 0 2176 c0 1680 3 2180
12 2189 22 22 41 12 97 -50z"/>
<path d="M6760 5931 c-21 -40 -12 -122 21 -191 21 -44 35 -96 45 -162 9 -64
22 -114 40 -147 17 -33 31 -83 39 -143 8 -56 24 -116 40 -151 17 -35 32 -95
40 -151 8 -59 23 -112 39 -145 17 -33 31 -85 40 -150 9 -65 23 -116 41 -151
18 -35 32 -86 41 -151 9 -66 22 -115 40 -148 17 -33 30 -83 39 -145 8 -58 23
-115 40 -150 17 -36 32 -93 40 -150 8 -59 23 -112 39 -145 17 -33 31 -85 40
-150 9 -63 23 -116 40 -149 16 -32 31 -88 41 -152 9 -63 25 -120 40 -151 16
-30 31 -87 40 -144 8 -53 25 -117 39 -148 15 -31 32 -94 40 -150 9 -58 25
-115 40 -146 17 -32 31 -85 40 -148 9 -65 22 -116 40 -151 17 -35 31 -86 40
-151 9 -64 23 -116 40 -150 17 -33 32 -88 42 -152 9 -64 24 -120 40 -152 16
-31 31 -84 39 -141 7 -56 23 -114 39 -149 17 -35 33 -93 41 -150 8 -55 24
-115 40 -150 16 -35 32 -95 40 -150 15 -107 21 -124 45 -137 48 -26 238 -23
275 4 13 9 21 40 31 109 9 63 22 114 40 148 17 34 31 86 40 150 9 65 23 117
40 150 16 33 31 86 39 143 7 56 24 119 43 161 19 44 33 97 37 140 4 44 18 94
36 134 18 40 35 101 44 163 10 62 25 118 41 150 17 33 31 86 40 149 9 65 23
117 40 150 16 33 31 86 39 143 7 56 24 119 43 161 19 44 33 97 37 140 4 44 18
94 36 134 18 40 35 101 44 163 9 58 25 118 39 146 13 26 31 75 41 109 40 144
115 114 131 -52 4 -43 18 -97 37 -140 18 -42 35 -106 42 -161 8 -57 23 -110
39 -142 16 -32 31 -88 41 -152 10 -64 25 -120 41 -152 16 -32 31 -85 39 -142
7 -55 23 -114 39 -147 15 -33 32 -96 40 -150 8 -54 26 -119 41 -152 16 -35 32
-96 40 -151 8 -59 23 -112 39 -145 17 -33 31 -85 40 -150 9 -63 23 -116 40
-149 16 -32 31 -88 41 -152 10 -63 24 -118 40 -148 15 -30 30 -84 39 -144 9
-60 25 -116 41 -148 14 -28 29 -74 32 -102 9 -79 24 -88 141 -88 57 0 107 5
120 13 35 18 81 132 97 242 9 59 24 114 41 146 17 34 31 86 40 150 9 65 23
116 40 151 17 34 31 86 40 145 7 55 23 116 39 150 15 33 33 99 41 153 8 57 24
113 39 141 15 30 30 85 39 148 10 63 25 119 41 150 15 31 31 88 40 151 10 65
25 120 41 153 18 34 31 85 40 150 9 63 23 116 40 148 15 31 31 88 40 147 9 60
24 114 39 144 16 30 30 85 40 148 9 62 25 120 40 150 15 30 31 88 40 150 10
64 25 120 41 152 17 33 31 86 40 149 9 64 23 117 39 150 16 31 32 87 41 146 8
57 25 119 40 152 16 33 32 92 39 147 8 57 23 110 39 142 16 32 31 88 41 152
10 64 25 120 41 152 16 32 31 85 39 144 8 56 23 116 40 151 16 34 32 95 40
150 8 56 23 114 40 149 17 35 33 94 40 149 8 53 24 114 41 149 25 54 26 62 13
85 -8 14 -25 28 -39 32 -14 4 -690 7 -1503 8 l-1478 1 -25 -26 c-19 -18 -24
-32 -20 -47 3 -12 13 -66 21 -120 9 -59 25 -118 40 -148 16 -31 31 -87 41
-150 9 -63 24 -118 39 -148 15 -29 30 -84 39 -143 9 -57 26 -119 41 -152 16
-34 32 -93 39 -149 9 -59 23 -111 40 -145 17 -35 31 -86 40 -151 9 -62 23
-116 39 -148 68 -134 69 -431 1 -565 -16 -32 -31 -85 -39 -144 -8 -55 -24
-116 -40 -151 -15 -33 -33 -98 -40 -150 -9 -55 -25 -113 -40 -142 -15 -31 -31
-88 -40 -151 -10 -65 -25 -120 -41 -153 -17 -33 -31 -85 -40 -144 -7 -56 -23
-115 -39 -149 -15 -32 -32 -94 -40 -149 -9 -59 -24 -114 -41 -146 -16 -33 -31
-86 -39 -143 -7 -56 -24 -119 -43 -161 -19 -44 -33 -97 -37 -140 -4 -44 -18
-94 -36 -134 -18 -40 -35 -101 -44 -163 -10 -62 -25 -118 -41 -150 -15 -29
-30 -83 -36 -122 -10 -79 -34 -121 -68 -121 -34 0 -58 42 -68 121 -6 40 -21
93 -36 122 -17 35 -31 86 -40 151 -9 63 -23 116 -40 149 -16 32 -31 88 -41
152 -10 64 -25 120 -41 152 -17 33 -31 86 -40 149 -9 63 -23 117 -39 149 -16
31 -31 87 -40 145 -8 53 -25 117 -39 147 -14 31 -31 95 -40 149 -8 57 -25 119
-41 153 -16 34 -32 93 -40 149 -8 55 -24 115 -40 150 -17 36 -32 95 -40 151
-8 59 -23 112 -39 145 -17 33 -31 85 -40 150 -9 64 -23 116 -40 150 -17 33
-31 86 -40 150 -9 65 -23 116 -41 151 -18 35 -32 86 -41 151 -9 65 -23 116
-40 151 -18 35 -31 86 -40 150 -9 64 -23 115 -39 146 -15 29 -30 84 -39 142
-8 54 -26 120 -41 153 -15 33 -32 96 -40 150 -8 54 -24 115 -40 150 -16 34
-32 95 -40 150 -8 54 -24 115 -40 149 -14 32 -31 88 -36 125 -13 93 -22 109
-68 133 -56 28 -176 29 -191 1z m4600 -251 c32 -32 28 -119 -11 -200 -21 -44
-35 -96 -45 -162 -9 -63 -23 -116 -40 -149 -16 -33 -31 -86 -39 -145 -8 -56
-23 -115 -40 -151 -16 -35 -32 -95 -40 -150 -8 -55 -24 -116 -40 -150 -16 -35
-32 -96 -40 -150 -8 -54 -25 -117 -40 -150 -15 -33 -33 -99 -41 -153 -9 -58
-24 -113 -39 -142 -16 -31 -30 -82 -39 -146 -9 -64 -22 -115 -40 -150 -17 -35
-31 -86 -40 -151 -9 -65 -23 -116 -41 -151 -18 -35 -32 -86 -41 -151 -9 -64
-23 -117 -40 -150 -17 -34 -31 -86 -40 -150 -9 -65 -23 -117 -40 -150 -16 -33
-31 -86 -39 -145 -8 -56 -23 -115 -40 -151 -17 -36 -32 -96 -41 -156 -9 -63
-23 -116 -40 -149 -16 -32 -31 -85 -39 -144 -8 -56 -23 -114 -39 -149 -16 -33
-33 -95 -42 -152 -8 -56 -25 -119 -40 -151 -16 -34 -31 -92 -40 -153 -26 -191
-64 -206 -151 -64 -37 61 -50 100 -58 185 -4 37 -20 95 -37 135 -19 42 -36
105 -43 161 -8 57 -23 110 -39 143 -17 32 -32 87 -41 146 -8 55 -25 117 -41
150 -16 35 -31 93 -39 149 -8 59 -23 112 -39 144 -16 32 -31 88 -41 152 -10
65 -25 120 -41 153 -17 33 -31 85 -39 143 -8 56 -24 113 -40 148 -17 36 -32
93 -40 150 -8 59 -23 112 -39 144 -16 32 -31 88 -41 150 -9 62 -26 123 -44
163 -18 40 -32 90 -36 134 -4 43 -18 96 -37 140 -19 42 -36 105 -43 161 -8 57
-23 110 -39 143 -17 33 -31 85 -40 150 -9 65 -23 116 -41 151 -18 35 -32 86
-41 151 -9 66 -22 115 -40 148 -17 33 -30 83 -39 145 -8 58 -23 115 -40 150
-17 35 -32 93 -40 149 -8 54 -24 115 -39 147 -38 82 -32 122 24 143 8 3 538 6
1178 6 1149 1 1162 1 1182 -19z"/>
<path d="M24413 5931 c-17 -11 -37 -29 -42 -40 -8 -14 -11 -798 -11 -2609 0
-2185 2 -2591 14 -2601 7 -6 56 -14 108 -18 88 -5 97 -4 117 16 l21 21 0 949
0 950 23 26 22 25 1433 3 1434 2 19 24 c19 24 20 41 17 625 -2 331 -7 609 -12
619 -21 43 14 42 -1478 47 -1070 4 -1430 8 -1439 17 -6 6 -14 29 -18 50 -3 21
-4 397 -1 835 4 635 8 800 18 810 11 11 357 14 1823 18 1594 4 1811 7 1819 20
5 8 10 50 10 92 0 67 -3 80 -24 105 l-24 28 -1899 3 c-1867 2 -1899 2 -1930
-17z"/>
<path d="M35322 5938 c-20 -20 -14 -49 18 -87 80 -95 111 -135 124 -159 8 -15
24 -36 35 -46 12 -11 32 -37 43 -58 12 -21 25 -38 30 -38 4 0 25 -24 48 -52
22 -29 58 -75 80 -103 22 -27 53 -68 68 -90 15 -23 43 -60 62 -84 74 -91 120
-147 137 -165 18 -19 71 -90 120 -161 25 -37 61 -81 134 -165 59 -68 119 -144
119 -151 0 -4 18 -29 40 -54 22 -25 40 -51 40 -56 0 -5 17 -27 38 -49 20 -21
56 -63 79 -92 24 -29 61 -75 83 -103 22 -27 40 -53 40 -57 0 -4 18 -28 40 -55
21 -26 57 -70 80 -98 22 -27 55 -68 73 -90 18 -22 55 -71 82 -108 51 -70 110
-144 165 -207 58 -66 96 -115 124 -160 16 -25 39 -55 52 -68 47 -48 39 -132
-18 -194 -18 -20 -53 -61 -78 -92 -25 -31 -62 -77 -82 -102 -21 -25 -38 -49
-38 -54 0 -5 -17 -29 -37 -54 -21 -24 -58 -70 -83 -101 -25 -31 -56 -68 -70
-83 -25 -26 -56 -69 -115 -154 -27 -40 -54 -73 -136 -168 -63 -74 -97 -116
-123 -155 -35 -54 -79 -113 -116 -155 -88 -102 -168 -202 -195 -245 -11 -18
-33 -48 -50 -69 -48 -58 -122 -148 -150 -181 -14 -16 -49 -64 -79 -105 -67
-94 -122 -162 -162 -203 -17 -18 -39 -47 -50 -64 -10 -18 -21 -33 -25 -33 -4
0 -22 -24 -40 -52 -32 -52 -67 -97 -129 -168 -85 -98 -120 -141 -120 -148 0
-4 -18 -27 -40 -51 -47 -52 -49 -68 -14 -81 39 -15 4329 -9 4344 6 18 18 4 49
-43 99 -56 59 -108 124 -173 215 -30 41 -65 89 -79 105 -28 33 -102 123 -150
181 -16 21 -39 51 -50 69 -27 43 -107 143 -195 245 -37 42 -81 101 -116 155
-26 39 -60 81 -123 155 -82 95 -109 128 -136 168 -59 85 -90 128 -115 154 -14
15 -45 52 -70 83 -25 31 -59 73 -76 93 -17 21 -37 48 -44 62 -7 14 -26 41 -42
60 -41 50 -106 129 -158 194 -25 31 -62 77 -82 102 -21 25 -38 49 -38 54 0 8
-36 54 -120 150 -16 19 -38 46 -47 60 -9 14 -22 28 -29 33 -11 6 -26 28 -96
136 -9 14 -20 38 -23 52 -7 27 -6 28 110 164 14 17 50 64 79 105 68 94 123
163 159 201 31 31 47 51 116 151 48 69 84 114 131 168 69 78 167 204 267 342
12 16 39 50 60 74 43 49 80 96 160 204 57 77 105 137 145 179 24 26 79 99 124
166 26 39 61 82 123 155 82 95 109 128 136 168 59 85 90 128 115 154 14 15 45
52 70 83 25 31 62 77 83 101 20 25 37 48 37 52 0 4 18 29 40 56 41 49 51 91
28 114 -17 17 -4309 17 -4326 0z m3804 -263 c28 -28 26 -52 -7 -95 -11 -14
-32 -43 -47 -65 -37 -56 -154 -199 -210 -258 -14 -15 -35 -43 -46 -61 -41 -65
-91 -130 -197 -256 -16 -19 -50 -59 -74 -88 -25 -29 -45 -57 -45 -62 0 -5 -17
-29 -37 -54 -21 -25 -58 -71 -83 -102 -25 -31 -62 -75 -82 -97 -21 -23 -38
-45 -38 -49 0 -4 -15 -25 -33 -45 -18 -21 -41 -51 -51 -68 -20 -32 -64 -87
-108 -136 -15 -16 -37 -44 -50 -62 -12 -18 -28 -36 -35 -40 -7 -4 -29 -31 -48
-60 -73 -107 -103 -149 -121 -167 -11 -10 -39 -44 -64 -75 -25 -31 -61 -75
-81 -98 -19 -23 -46 -59 -58 -80 -27 -44 -105 -107 -133 -107 -11 0 -28 10
-38 23 -10 12 -39 47 -64 77 -25 30 -59 71 -75 90 -88 101 -155 188 -198 259
-12 20 -30 43 -40 51 -10 8 -29 29 -41 47 -13 18 -35 46 -50 62 -44 49 -88
104 -108 136 -10 17 -33 47 -51 68 -18 20 -33 41 -33 45 0 4 -17 27 -37 49
-21 23 -57 66 -80 95 -24 29 -61 75 -83 103 -22 27 -40 53 -40 57 0 4 -18 28
-40 55 -21 26 -57 71 -80 98 -22 28 -55 68 -73 90 -18 22 -55 71 -82 108 -49
67 -104 137 -165 207 -34 39 -82 103 -120 160 -24 36 -52 71 -117 149 -39 45
-42 83 -11 105 20 14 192 16 1636 16 l1613 0 25 -25z m-1568 -2675 c88 -93
133 -150 218 -275 15 -22 39 -52 53 -67 14 -14 46 -52 71 -83 25 -31 59 -73
75 -93 17 -21 39 -50 50 -67 23 -37 113 -150 195 -245 37 -42 81 -101 116
-155 26 -39 61 -83 124 -155 89 -102 133 -159 197 -255 14 -22 38 -52 52 -67
14 -14 46 -52 71 -83 25 -31 61 -76 80 -101 19 -24 55 -71 80 -105 60 -81 123
-157 160 -194 41 -41 42 -96 3 -122 -26 -17 -111 -18 -1538 -21 -830 -2 -1548
0 -1593 3 -91 8 -122 25 -122 68 0 31 76 135 173 237 20 21 37 44 37 49 0 5
18 31 40 56 22 25 40 50 40 54 0 7 60 83 119 151 74 85 109 128 136 168 67 97
92 131 123 168 19 21 47 55 63 74 16 19 50 59 74 88 25 29 45 57 45 62 0 5 18
30 40 55 22 25 40 50 40 54 0 4 17 26 38 48 20 23 57 67 82 98 25 31 57 71 71
88 15 18 35 46 45 63 11 16 35 49 54 73 80 98 121 148 145 176 14 17 49 63 78
104 45 64 101 135 152 194 26 30 53 20 113 -43z"/>
</g>
</svg>
